{"title":"11-11-11 2011 DVDrip English Klam","uid":6802661,"size":1282641944,"categoryP":"video","categoryS":"movies","magnet":"?xt=urn:btih:9f606fe2d98173c2abf90db5e48acfbe8fbefd41&amp;dn=11-11-11+2011+DVDrip+English+Klam&amp;tr=udp%3A%2F%2Ftracker.openbittorrent.com%3A80&amp;tr=udp%3A%2F%2Fopen.demonii.com%3A1337&amp;tr=udp%3A%2F%2Ftracker.coppersurfer.tk%3A6969&amp;tr=udp%3A%2F%2Fexodus.desync.com%3A6969","seeders":0,"leechers":0,"uploader":"Klambake","files":-1,"time":1320750099,"description":"With: Timothy Gibbs, Michael Landes en Wendy Glenn\n\nNa de tragische dood van zijn vrouw en kind reist de beroemde Amerikaanse auteur Joseph Crone van de Verenigde Staten naar Barcelona om zich te herenigen met zijn vervreemde broer Samuel en zijn stervende vader Richard. Echter, het lot heeft een ander plan voor Joseph wanneer zijn leven wordt geplaagd door vreemde gebeurtenissen en de constante waarnemingen van het getal 11. De nieuwsgierigheid slaat al snel om in een obsessie en Joseph begint zich te realiseren dat het getal een angstaanjagende betekenis heeft, niet alleen voor zichzelf maar mogelijk voor elke religie. Hij zit geÃƒÂ¯soleerd in een vreemd land met alleen de steun van zijn metgezel Sadie en hij beseft al snel dat 11/11/11 meer is dan alleen een datum, het is een waarschuwing!\n\nAfter his death of his wife and child, an author travels to Barcelona to see his estranged brother and dying father, where he learns that his life is plagued by events that occur on 11/11/11. \n\n------------------ Dutch Friends ------------------\nYou can find my Friends at: http://www.Film-Test.nl \n------ They got my dutch subs ----- and more ------\n\nGeneral:\n\nName\t\t\t\t : l11-11-11\\11-11-11.avi\nFormat                           : AVI\nFormat/Info                      : Audio Video Interleave\nFile size                        : 1.19 GiB\nDuration                         : 1h 32mn\nOverall bit rate                 : 1838 Kbps\n\nVideo:\n\nFormat                           : MPEG-4 Visual\nFormat profile                   : Simple@L3\nFormat settings, BVOP            : No\nFormat settings, QPel            : No\nFormat settings, GMC             : No warppoints\nFormat settings, Matrix          : Default (H.263)\nCodec ID                         : XVID\nCodec ID/Hint                    : XviD\nDuration                         : 1h 32mn\nBit rate                         : 1 380 Kbps\nWidth                            : 720 pixels\nHeight                           : 304 pixels\nDisplay aspect ratio             : 2.35:1\nFrame rate                       : 25.000 fps\nColor space                      : YUV\nChroma subsampling               : 4:2:0\nBit depth                        : 8 bits\nScan type                        : Progressive\nCompression mode                 : Lossy\nBits/(Pixel*Frame)               : 0.252\nStream size                      : 917 MiB (75%)\nWriting library                  : XviD 1.1.2 (UTC 2006-11-01)\n\nAudio:\n\nFormat                           : AC-3\nFormat/Info                      : Audio Coding 3\nMode extension                   : CM (complete main)\nCodec ID                         : 2000\nDuration                         : 1h 32mn\nBit rate mode                    : Constant\nBit rate                         : 448 Kbps\nChannel(s)                       : 6 channels\nChannel positions                : Front: L C R, Side: L R, LFE\nSampling rate                    : 48.0 KHz\nBit depth                        : 16 bits\nCompression mode                 : Lossy\nStream size                      : 298 MiB (24%)\nAlignment                        : Aligned on interleaves\nInterleave, duration             : 32 ms (0.80 video frame)\nInterleave, preload duration     : 640 ms\n\n","torrent":{"xt":"urn:btih:9f606fe2d98173c2abf90db5e48acfbe8fbefd41","amp;dn":"11-11-11+2011+DVDrip+English+Klam","amp;tr":["udp%3A%2F%2Ftracker.openbittorrent.com%3A80","udp%3A%2F%2Fopen.demonii.com%3A1337","udp%3A%2F%2Ftracker.coppersurfer.tk%3A6969","udp%3A%2F%2Fexodus.desync.com%3A6969"],"infoHash":"9f606fe2d98173c2abf90db5e48acfbe8fbefd41","infoHashBuffer":{"type":"Buffer","data":[159,96,111,226,217,129,115,194,171,249,13,181,228,138,207,190,143,190,253,65]},"announce":[],"urlList":[]}}